<?xml version="1.0" encoding="utf-8"?>
<!-- Generated by IcoMoon.io -->
<!DOCTYPE svg PUBLIC "-//W3C//DTD SVG 1.1//EN" "http://www.w3.org/Graphics/SVG/1.1/DTD/svg11.dtd">
<svg version="1.1" xmlns="http://www.w3.org/2000/svg" xmlns:xlink="http://www.w3.org/1999/xlink" width="1024" height="1024" viewBox="0 0 1024 1024"><g id="icomoon-ignore">
</g>
<path fill="rgb(0, 0, 0)" d="M512 1024c-282.784 0-512-229.216-512-512s229.216-512 512-512c282.784 0 512 229.216 512 512s-229.216 512-512 512zM512 962.56c248.832 0 450.56-201.728 450.56-450.56s-201.728-450.56-450.56-450.56c-248.832 0-450.56 201.728-450.56 450.56s201.728 450.56 450.56 450.56zM549.152 737.28v-225.312h66.656l8.832-77.632h-75.488l0.128-38.848c0-20.256 2.048-31.104 33.216-31.104h41.664v-77.664h-66.656c-80.064 0-108.256 37.664-108.256 100.992v46.624h-49.92v77.632h49.92v225.312h99.904z"></path>
</svg>
