<?xml version="1.0" encoding="utf-8"?>
<!-- Generated by IcoMoon.io -->
<!DOCTYPE svg PUBLIC "-//W3C//DTD SVG 1.1//EN" "http://www.w3.org/Graphics/SVG/1.1/DTD/svg11.dtd">
<svg version="1.1" xmlns="http://www.w3.org/2000/svg" xmlns:xlink="http://www.w3.org/1999/xlink" width="1024" height="1024" viewBox="0 0 1024 1024"><g id="icomoon-ignore">
</g>
<path fill="rgb(0, 0, 0)" d="M512 1024c-282.784 0-512-229.216-512-512s229.216-512 512-512c282.784 0 512 229.216 512 512s-229.216 512-512 512zM512 962.56c248.832 0 450.56-201.728 450.56-450.56s-201.728-450.56-450.56-450.56c-248.832 0-450.56 201.728-450.56 450.56s201.728 450.56 450.56 450.56zM505.504 420.96l0.992 16.832-16.288-2.048c-59.264-7.904-111.008-34.688-154.976-79.68l-21.472-22.336-5.536 16.48c-11.712 36.768-4.224 75.552 20.192 101.664 13.024 14.432 10.080 16.48-12.384 7.904-7.808-2.752-14.656-4.8-15.296-3.776-2.272 2.4 5.536 33.664 11.712 46.016 8.448 17.184 25.728 34.016 44.608 43.968l15.936 7.904-18.88 0.352c-18.24 0-18.88 0.352-16.928 7.552 6.496 22.336 32.224 46.016 60.864 56.32l20.192 7.2-17.568 10.976c-26.048 15.808-56.64 24.736-87.264 25.408-14.656 0.352-26.688 1.728-26.688 2.752 0 3.424 39.712 22.656 62.816 30.24 69.344 22.336 151.712 12.704 213.568-25.408 43.936-27.136 87.904-81.056 108.416-133.28 11.072-27.808 22.144-78.656 22.144-103.040 0-15.808 0.992-17.856 19.2-36.768 10.752-10.976 20.832-23.008 22.784-26.432 3.264-6.528 2.944-6.528-13.664-0.672-27.68 10.304-31.584 8.928-17.92-6.528 10.080-10.976 22.144-30.912 22.144-36.768 0-1.024-4.896 0.672-10.432 3.776-5.856 3.424-18.88 8.576-28.64 11.68l-17.568 5.824-15.936-11.328c-8.8-6.176-21.152-13.056-27.68-15.104-16.608-4.8-41.984-4.128-56.96 1.376-40.704 15.456-66.4 55.296-63.488 98.912 0 0-2.944-43.616 0 0z"></path>
</svg>
